<?xml version="1.0" ?><svg height="60px" version="1.1" viewBox="0 0 60 60" width="60px" xmlns="http://www.w3.org/2000/svg" xmlns:sketch="http://www.bohemiancoding.com/sketch/ns" xmlns:xlink="http://www.w3.org/1999/xlink"><title/><desc/><defs/><g fill="none" fill-rule="evenodd" id="Page-1" stroke="none" stroke-width="1"><g fill="#1B1A19" id="Fill-212-+-Fill-213-+-Fill-214" transform="translate(6.000000, 0.000000)"><path d="M21.5,15 C20.122,15 19,16.121 19,17.5 C19,18.879 20.122,20 21.5,20 C22.878,20 24,18.879 24,17.5 C24,16.121 22.878,15 21.5,15 L21.5,15 Z M21.5,18 C21.224,18 21,17.775 21,17.5 C21,17.225 21.224,17 21.5,17 C21.776,17 22,17.225 22,17.5 C22,17.775 21.776,18 21.5,18 L21.5,18 Z" id="Fill-212"/><path d="M31,17.5 C31,16.121 29.878,15 28.5,15 C27.122,15 26,16.121 26,17.5 C26,18.879 27.122,20 28.5,20 C29.878,20 31,18.879 31,17.5 L31,17.5 Z M28.5,18 C28.224,18 28,17.775 28,17.5 C28,17.225 28.224,17 28.5,17 C28.776,17 29,17.225 29,17.5 C29,17.775 28.776,18 28.5,18 L28.5,18 Z" id="Fill-213"/><path d="M44,37 C42.593,37 41.36,37.733 40.647,38.834 L35.002,37 C35,36.386 35,35.727 35,35 C35,34.483 35.104,33.225 36.08,32.692 L44.988,27.768 C46.811,26.773 47.653,24.813 47.134,22.774 C46.598,20.672 44.831,19.203 42.838,19.203 C42.081,19.203 41.319,19.407 40.572,19.809 L34.903,22.855 C35.483,21.577 35.797,20.175 35.797,18.732 C35.797,15.199 34.344,11.254 30.623,9.278 L32.213,7.56 C32.754,7.832 33.355,8 34,8 C36.206,8 38,6.206 38,4 C38,1.794 36.206,0 34,0 C31.794,0 30,1.794 30,4 C30,4.835 30.259,5.61 30.698,6.252 L28.633,8.483 C27.56,8.179 26.36,8 25,8 C17.031,8 14.203,13.781 14.203,18.732 C14.203,20.175 14.516,21.577 15.098,22.855 L9.427,19.809 C8.68,19.407 7.918,19.203 7.161,19.203 C5.169,19.203 3.403,20.672 2.867,22.774 C2.347,24.813 3.189,26.773 5.006,27.765 L13.925,32.695 C14.895,33.225 15,34.483 15,35 C15,39.573 15,41.55 14.449,45.673 L7.882,45.076 C7.462,43.316 5.886,42 4,42 C1.794,42 0,43.794 0,46 C0,48.206 1.794,50 4,50 C5.829,50 7.358,48.759 7.833,47.08 L14.168,47.656 C13.888,49.533 13.514,51.835 13.014,54.836 C12.689,56.787 13.309,58.011 13.887,58.693 C14.631,59.571 15.758,60.075 16.98,60.075 L17.15,60.071 C19.777,59.971 20.983,58.27 21.895,56.447 C22.148,55.939 22.391,55.339 22.648,54.703 C23.208,53.318 24.147,51 25,51 C25.853,51 26.792,53.318 27.352,54.703 C27.609,55.339 27.852,55.939 28.105,56.447 C29.017,58.27 30.223,59.971 32.85,60.071 L33.02,60.075 C34.241,60.074 35.368,59.571 36.112,58.693 C36.69,58.011 37.311,56.787 36.986,54.836 C35.461,45.684 35.107,43.027 35.025,39.111 L40.027,40.735 C40.021,40.824 40,40.909 40,41 C40,43.206 41.794,45 44,45 C46.206,45 48,43.206 48,41 C48,38.794 46.206,37 44,37 L44,37 Z M34,2 C35.102,2 36,2.897 36,4 C36,5.103 35.102,6 34,6 C33.542,6 33.125,5.839 32.788,5.58 L32.742,5.516 L32.621,5.442 C32.24,5.078 32,4.567 32,4 C32,2.897 32.897,2 34,2 L34,2 Z M4,48 C2.897,48 2,47.103 2,46 C2,44.897 2.897,44 4,44 C5.103,44 6,44.897 6,46 C6,47.103 5.103,48 4,48 L4,48 Z M35.014,55.164 C35.171,56.111 35.023,56.884 34.586,57.4 C34.223,57.829 33.652,58.075 33.02,58.075 L32.926,58.073 C31.559,58.021 30.822,57.408 29.894,55.553 C29.676,55.116 29.448,54.551 29.206,53.953 C28.422,52.015 27.548,49.867 26,49.208 L26,46 L28,46 C28.552,46 29,45.553 29,45 C29,44.447 28.552,44 28,44 L26,44 L26,39 L28,39 C28.552,39 29,38.553 29,38 C29,37.447 28.552,37 28,37 L26,37 L26,33 L28,33 C28.552,33 29,32.553 29,32 C29,31.447 28.552,31 28,31 L26,31 L26,28 C26,27.447 25.552,27 25,27 C24.448,27 24,27.447 24,28 L24,31 L22,31 C21.448,31 21,31.447 21,32 C21,32.553 21.448,33 22,33 L24,33 L24,37 L22,37 C21.448,37 21,37.447 21,38 C21,38.553 21.448,39 22,39 L24,39 L24,44 L22,44 C21.448,44 21,44.447 21,45 C21,45.553 21.448,46 22,46 L24,46 L24,49.208 C22.452,49.867 21.578,52.015 20.794,53.953 C20.552,54.551 20.324,55.116 20.105,55.553 C19.178,57.408 18.441,58.021 16.98,58.075 C16.348,58.075 15.776,57.829 15.414,57.4 C14.976,56.884 14.829,56.111 14.986,55.164 C15.498,52.097 15.879,49.751 16.163,47.837 L17.91,47.996 L18.001,48 C18.513,48 18.949,47.609 18.996,47.091 C19.046,46.54 18.641,46.054 18.09,46.004 L16.444,45.854 C17,41.682 17,39.662 17,35 C17,33.153 16.228,31.674 14.888,30.942 L5.969,26.012 C4.451,25.184 4.694,23.703 4.805,23.269 C5.058,22.274 5.904,21.203 7.161,21.203 C7.584,21.203 8.027,21.327 8.48,21.57 L18.544,26.978 C18.738,27.081 18.992,27.114 19.21,27.078 C19.611,27.013 19.933,26.71 20.022,26.313 C20.113,25.916 19.953,25.504 19.619,25.272 C17.48,23.78 16.203,21.336 16.203,18.732 C16.203,16.684 16.837,10 25,10 C25.757,10 26.429,10.074 27.063,10.18 L24.715,12.717 C24.34,13.123 24.364,13.755 24.769,14.131 C24.962,14.309 25.206,14.397 25.449,14.397 C25.717,14.397 25.986,14.289 26.183,14.076 L29.214,10.8 C33.386,12.629 33.797,17.116 33.797,18.732 C33.797,21.336 32.52,23.78 30.381,25.272 C30.047,25.504 29.902,25.919 29.992,26.315 C30.082,26.712 30.419,27.018 30.82,27.083 C31.037,27.123 31.262,27.083 31.456,26.978 L41.519,21.57 C41.972,21.327 42.416,21.203 42.838,21.203 C44.096,21.203 44.942,22.274 45.195,23.269 C45.307,23.703 45.55,25.184 44.026,26.015 L35.118,30.939 C33.772,31.673 33,33.153 33,35 C33,35.477 33,35.924 33.001,36.35 L31.03,35.71 C30.501,35.54 29.94,35.828 29.77,36.353 C29.599,36.878 29.887,37.441 30.412,37.612 L33.013,38.457 C33.069,42.889 33.374,45.328 35.014,55.164 L35.014,55.164 Z M44,43 C42.897,43 42,42.103 42,41 C42,39.897 42.897,39 44,39 C45.102,39 46,39.897 46,41 C46,42.103 45.102,43 44,43 L44,43 Z" id="Fill-214"/></g></g></svg>